<svg width="327" height="22" viewBox="0 0 327 22" fill="none" xmlns="http://www.w3.org/2000/svg">
<line y1="10.5" x2="140" y2="10.5" stroke="#666687"/>
<path d="M164.255 10.9866C164.255 11.7213 164.122 12.3978 163.858 13.0161C163.603 13.6254 163.247 14.1541 162.792 14.6021C162.336 15.0412 161.793 15.3862 161.164 15.6371C160.536 15.879 159.852 16 159.114 16C158.375 16 157.692 15.879 157.063 15.6371C156.443 15.3862 155.905 15.0412 155.449 14.6021C154.994 14.1541 154.638 13.6254 154.383 13.0161C154.128 12.3978 154 11.7213 154 10.9866C154 10.2428 154.128 9.56631 154.383 8.95699C154.638 8.33871 154.994 7.81452 155.449 7.38441C155.905 6.94534 156.443 6.60484 157.063 6.3629C157.692 6.12097 158.375 6 159.114 6C159.852 6 160.536 6.12097 161.164 6.3629C161.793 6.60484 162.336 6.94534 162.792 7.38441C163.247 7.81452 163.603 8.33871 163.858 8.95699C164.122 9.56631 164.255 10.2428 164.255 10.9866ZM162.792 10.9866C162.792 10.4668 162.705 9.97849 162.532 9.52151C162.359 9.05556 162.112 8.64785 161.793 8.29839C161.474 7.94892 161.087 7.67563 160.631 7.47849C160.185 7.2724 159.679 7.16935 159.114 7.16935C158.558 7.16935 158.052 7.2724 157.596 7.47849C157.149 7.67563 156.766 7.94892 156.447 8.29839C156.137 8.64785 155.896 9.05556 155.723 9.52151C155.55 9.97849 155.463 10.4668 155.463 10.9866C155.463 11.5152 155.55 12.0125 155.723 12.4785C155.896 12.9444 156.142 13.3521 156.461 13.7016C156.78 14.0421 157.163 14.3109 157.61 14.5081C158.056 14.7052 158.558 14.8038 159.114 14.8038C159.67 14.8038 160.175 14.7052 160.631 14.5081C161.087 14.3109 161.474 14.0421 161.793 13.7016C162.112 13.3521 162.359 12.9444 162.532 12.4785C162.705 12.0125 162.792 11.5152 162.792 10.9866Z" fill="#C4C0D7"/>
<path d="M167.449 15.7581H166.095V6.24194H169.199C169.664 6.24194 170.106 6.29122 170.525 6.38978C170.945 6.47939 171.309 6.62724 171.619 6.83333C171.938 7.03943 172.189 7.31272 172.371 7.65323C172.553 7.98477 172.645 8.39247 172.645 8.87634C172.645 9.57527 172.426 10.1398 171.988 10.5699C171.551 11 170.986 11.2733 170.293 11.3898L173 15.7581H171.359L168.898 11.5242H167.449V15.7581ZM167.449 10.4086H169.008C169.327 10.4086 169.623 10.3817 169.896 10.328C170.17 10.2742 170.407 10.1891 170.607 10.0726C170.817 9.94713 170.981 9.79032 171.099 9.60215C171.218 9.40502 171.277 9.16308 171.277 8.87634C171.277 8.58961 171.218 8.35215 171.099 8.16398C170.981 7.96685 170.821 7.81004 170.621 7.69355C170.43 7.57706 170.202 7.49642 169.937 7.45161C169.673 7.39785 169.395 7.37097 169.103 7.37097H167.449V10.4086Z" fill="#C4C0D7"/>
<line x1="187" y1="10.5" x2="327" y2="10.5" stroke="#666687"/>
</svg>
