<svg width="16" height="16" viewBox="0 0 16 16" fill="none" xmlns="http://www.w3.org/2000/svg">
<path d="M10.2624 12.1732L8.66667 11.3333L10.2624 12.1732ZM10.2624 12.1732L10.3272 12.5511L10.82 12.4666L11.0529 12.0242L10.7135 11.8456L10.34 9.66664C10.3225 9.56051 10.331 9.45172 10.3646 9.34957C10.3983 9.24741 10.4562 9.15491 10.5333 9.07997M10.2624 12.1732L10.8817 9.43866L12.9137 7.47996L13.6486 6.77152L12.6384 6.62514L9.8317 6.21848L9.8317 6.21847L9.82889 6.21808C9.80189 6.21432 9.77622 6.204 9.75414 6.18802C9.73206 6.17204 9.71423 6.15088 9.70222 6.12641L9.70205 6.12605L9.11538 4.93271L8.16667 5.15331V11.3333V11.6352L8.4338 11.7758L10.5871 12.9091L11.4841 13.3812L11.3128 12.3822L10.8333 9.58533L10.3401 9.66663L10.8328 9.58216L10.8332 9.58429C10.829 9.55809 10.8312 9.53127 10.8395 9.50606C10.8479 9.48069 10.8622 9.45771 10.8813 9.43905L10.8803 9.43996L10.5333 9.07997M10.5333 9.07997L12.111 7.55918M10.5333 9.07997L12.111 7.55918M12.111 7.55918L12.495 7.61481L12.5667 7.11998L12.111 7.55918ZM14.0212 6.49474L14.0359 6.49689L14.0507 6.49815C14.0828 6.5009 14.1135 6.51292 14.1389 6.53274C14.1596 6.54882 14.1761 6.56947 14.1872 6.59297C14.191 6.61797 14.189 6.64359 14.1814 6.66787C14.172 6.69796 14.1542 6.72476 14.1301 6.74515L14.1174 6.7559L14.1055 6.76748L11.3521 9.43415L11.1616 9.61872L11.2076 9.88L11.8742 13.6667L11.8742 13.6667L11.8755 13.6735C11.8814 13.7048 11.8783 13.737 11.8665 13.7666C11.8547 13.7961 11.8347 13.8216 11.8088 13.8402L11.8068 13.8416C11.7782 13.8623 11.7438 13.8734 11.7085 13.8733L11.705 13.8733C11.6842 13.8734 11.6638 13.868 11.6457 13.8578L11.6389 13.854L11.6319 13.8503L8.23191 12.0703L8 11.9489L7.7681 12.0703L4.3681 13.8503L4.36094 13.8541L4.35391 13.8581C4.32595 13.8739 4.29402 13.8813 4.26196 13.8794C4.2299 13.8774 4.19908 13.8663 4.1732 13.8473C4.14731 13.8283 4.12748 13.8022 4.11607 13.7722C4.10467 13.7421 4.10218 13.7095 4.10891 13.6781L4.11084 13.6691L4.11243 13.66L4.7791 9.87334L4.8251 9.61205L4.63453 9.42748L1.88478 6.76428C1.86427 6.7432 1.8497 6.71706 1.84256 6.6885C1.8356 6.66066 1.83595 6.63152 1.84355 6.60389C1.85349 6.57608 1.87066 6.55138 1.89332 6.53236C1.91719 6.51233 1.94619 6.49938 1.97703 6.495L1.97703 6.49501L1.97969 6.49461L5.77303 5.93461L6.03219 5.89635L6.14826 5.66149L7.84826 2.22149L7.84827 2.2215L7.85 2.21792C7.86365 2.18974 7.88496 2.16598 7.91149 2.14935C7.93802 2.13272 7.96869 2.1239 8 2.1239C8.03131 2.1239 8.06199 2.13272 8.08852 2.14935C8.11505 2.16598 8.13636 2.18974 8.15 2.21792L8.14999 2.21792L8.15158 2.22115L9.85158 5.66782L9.96782 5.90348L10.2278 5.94141L14.0212 6.49474Z" fill="#FFB01D" stroke="#FFB01D"/>
</svg>
