<svg width="20" height="20" viewBox="0 0 20 20" fill="none" xmlns="http://www.w3.org/2000/svg">
<g clip-path="url(#clip0_10_926)">
<path d="M8.25001 3.53339C8.82362 3.39913 9.4109 3.33201 10 3.3334C15.8333 3.3334 19.1667 10.0001 19.1667 10.0001C18.6608 10.9464 18.0576 11.8373 17.3667 12.6584M11.7667 11.7667C11.5378 12.0124 11.2618 12.2094 10.9551 12.346C10.6485 12.4826 10.3174 12.5561 9.98175 12.562C9.64608 12.568 9.31264 12.5062 9.00135 12.3805C8.69006 12.2547 8.40728 12.0676 8.16988 11.8302C7.93249 11.5928 7.74534 11.31 7.6196 10.9987C7.49386 10.6874 7.43211 10.354 7.43804 10.0183C7.44396 9.68264 7.51743 9.3516 7.65407 9.04493C7.79071 8.73827 7.98772 8.46227 8.23334 8.2334M14.95 14.9501C13.5255 16.0359 11.7909 16.6374 10 16.6667C4.16668 16.6667 0.833344 10.0001 0.833344 10.0001C1.86992 8.06831 3.30762 6.38057 5.05001 5.05006L14.95 14.9501Z" stroke="#8E8EA9" stroke-width="1.39167" stroke-linecap="round" stroke-linejoin="round"/>
<path d="M0.833344 0.833374L19.1667 19.1667" stroke="#8E8EA9" stroke-width="1.39167" stroke-linecap="round" stroke-linejoin="round"/>
</g>
<defs>
<clipPath id="clip0_10_926">
<rect width="20" height="20" fill="white"/>
</clipPath>
</defs>
</svg>
