<svg width="22" height="22" viewBox="0 0 22 22" fill="none" xmlns="http://www.w3.org/2000/svg">
<path fill-rule="evenodd" clip-rule="evenodd" d="M21.5602 11.2501C21.5602 10.4701 21.4902 9.72008 21.3602 9.00007H11.0001V13.2551H16.9201C16.6651 14.6301 15.8901 15.7951 14.7251 16.5751V19.3352H18.2802C20.3602 17.4201 21.5602 14.6001 21.5602 11.2501Z" fill="#4285F4"/>
<path fill-rule="evenodd" clip-rule="evenodd" d="M11 22C13.97 22 16.4601 21.015 18.2801 19.335L14.725 16.575C13.74 17.235 12.48 17.625 11 17.625C8.13499 17.625 5.70997 15.69 4.84496 13.09H1.16993V15.94C2.97995 19.535 6.69998 22 11 22Z" fill="#34A853"/>
<path fill-rule="evenodd" clip-rule="evenodd" d="M4.84504 13.0902C4.62504 12.4302 4.50004 11.7252 4.50004 11.0002C4.50004 10.2751 4.62504 9.57014 4.84504 8.91013V6.06011H1.17001C0.425003 7.54512 0 9.22514 0 11.0002C0 12.7752 0.425003 14.4552 1.17001 15.9402L4.84504 13.0902Z" fill="#FBBC05"/>
<path fill-rule="evenodd" clip-rule="evenodd" d="M11 4.37504C12.615 4.37504 14.065 4.93004 15.205 6.02005L18.3601 2.86502C16.4551 1.09001 13.965 0 11 0C6.69998 0 2.97995 2.46502 1.16993 6.06005L4.84496 8.91007C5.70997 6.31005 8.13499 4.37504 11 4.37504Z" fill="#EA4335"/>
</svg>
